<svg width="30px" fill="#faebd7" viewBox="0 0 48 48"  xmlns="http://www.w3.org/2000/svg" xmlns:xlink="http://www.w3.org/1999/xlink">
<path d="m14 19c1.104 0 2 .896 2 2 0 1.104-.896 2-2 2h-9c-1.656 0-3-1.344-3-3v-12c0-1.656 1.344-3 3-3h14c1.656 0 3 1.344 3 3v15c0 1.104-.896 2-2 2-1.104 0-2-.896-2-2v-14h-12v10z" />
<path d="m30 16c0 1.104-.896 2-2 2-1.104 0-2-.896-2-2v-8c0-1.656 1.344-3 3-3h14c1.656 0 3 1.344 3 3v12c0 1.656-1.344 3-3 3h-18c-1.104 0-2-.896-2-2 0-1.104.896-2 2-2h17v-10h-12z" />
<path d="m34 30c-1.104 0-2-.896-2-2 0-1.104.896-2 2-2h9c1.656 0 3 1.344 3 3v12c0 1.656-1.344 3-3 3h-14c-1.656 0-3-1.344-3-3v-15c0-1.104.896-2 2-2 1.104 0 2 .896 2 2v14h12v-10z" />
<path d="m18 34c0-1.104.896-2 2-2 1.104 0 2 .896 2 2v7c0 1.656-1.344 3-3 3h-14c-1.656 0-3-1.344-3-3v-12c0-1.656 1.344-3 3-3h18c1.104 0 2 .896 2 2 0 1.104-.896 2-2 2h-17v10h12z" />
</svg>