<svg version="1.0" xmlns="http://www.w3.org/2000/svg"
 width="30px" fill="#faebd7" viewBox="0 0 1500 1500"
 preserveAspectRatio="xMidYMid meet" >

<g transform="translate(0.000000,1500.000000) scale(0.100000,-0.100000)"  stroke="none">
<path  d="M0 7500 l0 -7500 7500 0 7500 0 0 7500 0 7500 -7500 0 -7500 0 0
-7500z m6788 6105 c185 -44 366 -190 448 -363 63 -132 84 -330 49 -467 -48
-189 -181 -352 -356 -439 -121 -60 -213 -79 -344 -73 -127 6 -210 32 -311 99
-162 105 -179 105 -497 -2 -720 -242 -1280 -543 -1800 -967 -163 -133 -507
-475 -647 -643 -633 -761 -997 -1604 -1135 -2625 -43 -320 -50 -443 -50 -830
0 -378 7 -501 46 -785 140 -1013 571 -1971 1267 -2815 207 -251 553 -580 822
-781 774 -580 1720 -915 2808 -995 237 -17 777 -6 993 20 629 76 1181 237
1737 507 808 391 1485 925 1945 1531 409 541 687 1178 821 1884 38 198 68 479
52 479 -3 0 -291 -61 -642 -135 -351 -74 -639 -134 -640 -132 -2 1 57 48 129
104 393 303 725 640 977 993 345 482 573 1025 683 1625 28 153 17 173 101
-185 107 -459 141 -677 167 -1070 13 -195 7 -645 -11 -830 -89 -927 -397
-1794 -915 -2575 -621 -938 -1452 -1667 -2442 -2142 -635 -304 -1333 -510
-1998 -590 -190 -22 -859 -26 -1050 -5 -668 73 -1319 240 -1917 494 -910 387
-1727 1024 -2316 1808 -551 733 -941 1661 -1102 2625 -111 661 -108 1262 11
1949 224 1300 753 2372 1569 3186 263 262 496 452 815 665 486 323 980 564
1572 765 111 38 215 75 231 84 51 26 88 80 117 168 43 131 81 195 170 283 135
136 277 194 475 194 59 1 132 -6 168 -14z m-713 -2546 c88 -17 205 -52 205
-60 0 -5 7 -9 15 -9 30 0 324 -123 335 -140 3 -5 41 -27 85 -50 44 -23 92 -51
106 -61 15 -10 32 -19 38 -19 6 0 11 -4 11 -9 0 -5 42 -36 93 -69 50 -33 112
-78 136 -101 24 -22 49 -41 55 -41 6 0 34 -21 61 -46 28 -25 74 -64 103 -86
29 -23 64 -54 77 -70 13 -15 27 -28 31 -28 5 0 23 -14 40 -31 l33 -32 58 56
c32 30 81 73 108 96 28 22 59 48 70 59 50 46 122 102 131 102 6 0 28 17 50 38
21 22 73 60 114 86 41 26 80 53 85 60 11 13 68 47 175 104 36 19 67 38 70 42
8 12 197 99 265 122 33 11 62 23 65 27 8 11 145 48 245 67 137 25 333 16 443
-21 46 -16 89 -33 95 -40 7 -6 47 -35 89 -63 43 -29 83 -62 89 -75 15 -27 71
-101 81 -105 15 -7 78 -143 104 -224 15 -46 30 -85 34 -88 10 -7 48 -206 60
-315 13 -116 13 -469 0 -610 -14 -155 -52 -429 -60 -435 -4 -3 -15 -50 -25
-105 -10 -55 -20 -106 -22 -112 -3 -7 2 -13 11 -13 9 0 16 -4 16 -10 0 -5 9
-10 19 -10 30 0 395 -127 399 -139 2 -6 10 -11 17 -11 12 0 57 -19 229 -94 27
-11 54 -25 60 -31 6 -5 60 -35 119 -65 59 -30 122 -67 140 -82 18 -16 36 -28
41 -28 5 0 40 -22 78 -50 38 -27 70 -50 73 -50 2 0 30 -25 62 -55 32 -30 63
-55 70 -55 6 0 39 -34 73 -75 33 -41 66 -78 73 -82 18 -12 93 -131 116 -186
12 -27 27 -55 35 -62 25 -25 50 -163 50 -270 0 -75 -6 -120 -24 -180 -13 -44
-27 -82 -30 -85 -4 -3 -26 -42 -50 -87 -23 -45 -59 -101 -79 -124 -79 -93
-243 -251 -295 -284 -31 -19 -63 -44 -73 -54 -10 -10 -61 -44 -113 -76 -52
-31 -97 -60 -100 -64 -3 -4 -63 -36 -135 -71 -71 -34 -132 -66 -135 -69 -3 -4
-25 -15 -50 -25 -76 -31 -223 -87 -270 -103 -25 -8 -47 -19 -50 -23 -3 -4 -61
-24 -130 -45 -69 -21 -128 -41 -132 -44 -8 -7 21 -163 32 -171 7 -5 31 -151
56 -340 21 -161 30 -619 14 -762 -17 -160 -52 -335 -69 -348 -3 -3 -14 -30
-24 -60 -87 -259 -268 -449 -482 -502 -27 -7 -53 -17 -57 -23 -10 -14 -346
-13 -356 1 -4 6 -35 16 -69 23 -111 21 -349 100 -362 119 -3 5 -67 38 -143 75
-75 37 -138 70 -140 74 -3 9 -84 63 -93 63 -11 0 -115 73 -115 81 0 5 -5 9
-10 9 -13 0 -157 106 -223 163 -26 23 -56 46 -67 52 -11 6 -52 40 -90 75 -38
36 -84 77 -102 91 l-32 27 -55 -47 c-30 -25 -68 -60 -85 -77 -17 -18 -62 -55
-101 -84 -38 -28 -78 -63 -88 -76 -10 -13 -23 -24 -27 -24 -9 0 -121 -80 -172
-123 -15 -13 -65 -45 -110 -72 -46 -27 -87 -54 -93 -61 -5 -7 -66 -40 -135
-75 -69 -35 -127 -66 -130 -69 -15 -17 -204 -85 -310 -111 -52 -13 -97 -27
-100 -31 -3 -4 -56 -12 -117 -19 -87 -9 -135 -9 -213 1 -55 7 -100 15 -100 19
0 4 -26 15 -57 25 -32 10 -82 32 -111 50 -30 17 -61 36 -71 41 -15 9 -47 43
-136 146 -37 43 -91 149 -121 239 -16 47 -32 87 -36 90 -10 8 -36 117 -53 230
-26 163 -31 527 -11 740 19 198 55 452 66 460 10 7 41 171 34 181 -3 5 -13 9
-22 9 -22 0 -236 70 -242 80 -3 4 -16 10 -30 14 -79 23 -330 125 -348 143 -7
7 -18 13 -24 13 -14 0 -241 113 -253 126 -10 11 -86 57 -138 84 -15 7 -46 31
-69 52 -23 21 -46 38 -51 38 -21 0 -277 233 -277 252 0 4 -17 25 -38 47 -20
21 -55 73 -77 115 -22 42 -42 76 -46 76 -11 0 -51 152 -60 224 -4 40 -3 105 2
148 10 84 45 208 58 208 4 0 15 17 23 38 23 58 106 181 146 216 19 17 42 43
51 57 9 14 51 54 93 88 42 34 78 65 80 70 2 5 46 36 98 69 52 34 102 67 110
74 26 22 86 57 158 93 38 18 75 39 83 47 15 15 298 138 317 138 6 0 12 5 14
10 3 11 162 68 318 116 52 15 101 34 109 41 11 11 11 25 0 81 -7 37 -16 69
-20 72 -16 12 -64 364 -80 585 -14 198 -7 482 16 630 19 119 53 267 63 275 5
3 19 34 31 70 31 85 87 197 105 207 7 4 28 29 45 55 37 55 66 80 144 128 31
19 57 37 57 41 0 12 161 59 235 68 77 11 241 5 320 -10z"/>
<path d="M6563 13289 c-112 -21 -203 -94 -256 -207 -27 -57 -32 -79 -32 -142
0 -66 5 -85 33 -142 38 -77 92 -130 171 -167 47 -22 70 -26 146 -26 76 0 99 4
145 26 79 37 125 81 161 154 71 145 35 344 -79 430 -71 55 -207 89 -289 74z"/>
<path d="M9060 10722 c-30 -2 -57 -7 -60 -11 -3 -4 -41 -15 -84 -24 -100 -22
-274 -88 -309 -117 -7 -6 -55 -32 -107 -58 -107 -54 -143 -76 -179 -109 -13
-13 -28 -23 -33 -23 -8 0 -117 -75 -148 -102 -22 -20 -101 -80 -140 -107 -19
-14 -39 -30 -43 -38 -4 -7 -39 -38 -77 -68 -39 -31 -81 -68 -94 -82 -30 -32
-34 -25 94 -162 52 -56 97 -107 99 -113 2 -6 32 -40 67 -76 35 -36 64 -71 64
-77 0 -6 16 -26 36 -44 19 -19 51 -56 69 -84 18 -27 50 -68 70 -91 20 -22 61
-76 91 -118 51 -71 58 -78 90 -78 19 0 34 -4 34 -9 0 -4 33 -11 73 -15 188
-17 755 -110 767 -125 5 -7 102 -31 124 -31 8 0 16 15 19 33 31 164 39 213 52
301 22 157 35 289 35 366 0 40 4 70 10 70 6 0 10 43 10 110 0 61 -4 110 -8
110 -5 0 -12 46 -15 103 -10 163 -45 321 -96 440 -11 26 -24 47 -29 47 -5 0
-15 14 -22 30 -19 47 -91 104 -149 120 -28 7 -51 17 -51 21 0 9 -87 15 -160
11z"/>
<path d="M5800 10710 c0 -5 -9 -10 -20 -10 -62 0 -200 -88 -200 -127 0 -7 -4
-13 -10 -13 -29 0 -100 -201 -121 -343 -7 -45 -18 -85 -23 -89 -17 -11 -15
-610 2 -616 6 -2 12 -20 12 -40 0 -44 43 -325 66 -434 14 -64 20 -78 36 -78
26 0 112 22 118 30 13 17 708 130 803 130 20 0 37 5 37 10 0 6 13 10 28 10 16
0 35 6 44 13 19 15 98 123 98 135 0 4 17 26 39 48 21 21 51 57 65 79 15 22 44
60 66 85 21 25 65 77 96 115 32 39 61 72 64 75 4 3 37 41 76 85 38 44 76 87
84 95 9 8 28 29 44 47 l28 31 -28 37 c-15 21 -36 40 -45 44 -10 3 -46 32 -81
63 -84 76 -215 178 -228 178 -5 0 -10 4 -10 9 0 9 -98 78 -143 101 -16 8 -39
25 -51 37 -24 23 -59 44 -191 111 -38 19 -72 39 -75 43 -19 28 -341 129 -411
129 -16 0 -29 5 -29 10 0 6 -30 10 -70 10 -40 0 -70 -4 -70 -10z"/>
<path d="M7449 9646 c-24 -23 -63 -63 -84 -91 -22 -27 -59 -67 -82 -89 -24
-23 -43 -45 -43 -51 0 -6 -25 -37 -55 -69 -30 -31 -55 -60 -55 -62 0 -3 -16
-25 -35 -48 -19 -24 -35 -46 -35 -49 0 -3 198 -6 440 -6 334 1 439 3 433 12
-12 22 -68 91 -84 107 -9 8 -38 42 -64 75 -27 33 -72 85 -101 115 -30 30 -54
60 -54 65 0 6 -30 38 -68 72 l-67 60 -46 -41z"/>
<path d="M7200 8810 c-102 -4 -240 -11 -307 -15 l-122 -8 -30 -36 c-36 -43
-131 -188 -131 -200 0 -4 -12 -21 -26 -36 -14 -16 -38 -51 -54 -79 -15 -28
-41 -74 -59 -102 -17 -28 -31 -55 -31 -59 0 -4 -6 -13 -14 -19 -8 -6 -38 -56
-66 -111 -29 -55 -57 -104 -64 -110 -6 -5 -42 -73 -80 -150 -38 -77 -72 -142
-76 -145 -6 -4 -70 -143 -97 -210 -8 -21 -2 -42 39 -130 27 -58 53 -106 59
-108 5 -2 9 -8 9 -13 0 -14 130 -273 140 -279 5 -3 33 -52 63 -108 29 -57 61
-111 70 -122 8 -10 30 -45 48 -77 18 -32 43 -74 56 -93 12 -19 23 -40 23 -47
0 -7 6 -16 13 -20 17 -10 69 -87 91 -133 9 -20 30 -51 48 -70 17 -19 38 -48
48 -65 16 -28 21 -30 96 -37 175 -15 912 -21 1136 -9 122 7 231 15 241 17 9 3
24 17 31 32 8 15 27 42 43 59 16 18 36 45 43 60 21 42 92 148 102 151 4 2 8 8
8 14 0 5 8 22 19 36 10 15 35 59 56 97 20 39 43 75 50 80 7 6 41 65 75 130 34
66 66 122 70 125 4 3 38 68 76 145 38 77 74 145 80 152 12 13 87 183 87 198 0
15 -84 209 -93 215 -5 3 -39 66 -76 140 -37 74 -71 137 -75 140 -4 3 -31 51
-61 108 -30 57 -62 112 -71 123 -9 10 -17 22 -17 25 0 3 -16 29 -34 59 -19 30
-45 73 -57 97 -12 24 -31 53 -43 65 -12 12 -28 34 -36 50 -19 37 -102 164
-117 181 -7 7 -20 25 -29 41 -16 27 -21 29 -113 35 -138 9 -603 26 -686 24
-38 -1 -153 -4 -255 -8z m490 -576 c83 -20 202 -75 243 -113 18 -16 52 -45 77
-63 25 -19 49 -43 55 -53 13 -27 77 -119 86 -125 4 -3 19 -33 33 -68 62 -148
74 -332 31 -497 -27 -103 -49 -155 -71 -168 -8 -4 -14 -14 -14 -21 0 -33 -127
-170 -212 -227 -31 -22 -61 -39 -67 -39 -5 0 -16 -7 -24 -14 -20 -20 -117 -52
-201 -67 -99 -17 -253 -7 -355 24 -46 13 -86 29 -90 34 -3 6 -23 18 -44 28
-21 10 -62 36 -91 59 -53 41 -166 162 -166 177 0 4 -6 14 -14 21 -28 28 -67
120 -87 206 -18 72 -20 109 -17 217 4 113 9 143 37 226 18 53 40 105 49 115
30 34 72 92 72 101 0 11 62 70 113 107 20 15 48 38 62 50 42 39 203 93 330
110 50 7 196 -5 265 -20z"/>
<path d="M6175 8722 c-55 -8 -102 -18 -105 -22 -3 -5 -27 -11 -55 -15 -77 -11
-388 -74 -394 -80 -6 -7 77 -298 88 -305 5 -3 32 -75 60 -160 62 -181 68 -195
77 -162 3 12 10 22 14 22 4 0 34 52 65 115 31 64 62 121 69 128 11 13 20 28
91 163 23 44 54 93 69 109 14 15 26 33 26 39 0 6 11 27 23 46 30 44 79 132 75
134 -2 1 -48 -5 -103 -12z"/>
<path d="M8710 8732 c0 -6 7 -12 15 -16 8 -3 15 -10 15 -16 0 -6 15 -35 34
-63 18 -29 41 -69 50 -89 9 -19 26 -45 38 -58 12 -12 33 -46 48 -74 64 -122
90 -168 102 -180 7 -7 40 -69 73 -139 33 -69 65 -128 71 -130 12 -6 40 68 101
263 19 63 39 117 43 120 9 5 83 251 77 256 -5 5 -200 45 -327 66 -69 12 -127
25 -130 28 -3 4 -43 13 -90 19 -47 7 -93 15 -102 18 -10 2 -18 0 -18 -5z"/>
<path d="M5220 8494 c-8 -3 -58 -19 -110 -36 -52 -17 -97 -34 -100 -38 -3 -3
-50 -23 -105 -43 -132 -47 -248 -96 -255 -106 -3 -4 -62 -36 -132 -70 -70 -34
-128 -66 -130 -70 -2 -5 -45 -34 -96 -66 -51 -31 -96 -63 -98 -70 -3 -7 -32
-31 -63 -54 -32 -22 -73 -58 -91 -78 -18 -21 -49 -57 -70 -80 -61 -69 -110
-188 -110 -267 0 -105 64 -226 184 -348 47 -49 87 -88 90 -88 11 0 126 -93
126 -102 0 -4 4 -8 10 -8 5 0 40 -19 77 -43 38 -24 83 -49 101 -56 18 -8 36
-19 40 -26 7 -13 140 -78 246 -121 33 -13 62 -28 65 -32 7 -10 92 -42 251 -95
69 -23 127 -44 130 -47 9 -11 72 -30 81 -24 5 3 9 14 9 25 0 10 4 19 9 19 5 0
13 19 19 43 23 89 123 402 131 407 4 3 17 32 29 65 70 201 99 276 111 285 4 3
18 36 33 73 19 48 24 75 19 90 -28 71 -46 113 -53 118 -8 5 -24 47 -96 244
-19 55 -39 102 -42 105 -12 9 -140 408 -140 436 0 8 -4 14 -9 14 -5 0 -12 11
-15 25 -6 24 -16 28 -46 19z"/>
<path d="M9690 8378 c-44 -164 -100 -332 -111 -336 -5 -2 -9 -8 -9 -13 0 -19
-121 -341 -130 -349 -4 -3 -21 -41 -39 -84 -33 -78 -33 -80 -16 -115 9 -19 24
-56 32 -81 8 -25 20 -48 25 -51 9 -6 27 -52 94 -238 18 -52 37 -97 42 -100 10
-7 124 -366 140 -441 9 -41 25 -51 64 -38 18 6 35 14 38 18 3 3 52 21 110 40
138 44 262 92 278 107 6 6 22 15 35 19 43 13 262 117 265 126 2 5 32 23 65 40
34 17 81 44 104 59 23 16 46 29 52 29 6 0 11 3 11 8 0 4 32 32 72 62 97 74
218 198 261 268 42 69 67 148 67 214 0 71 -51 193 -108 259 -95 107 -135 149
-146 149 -6 0 -40 27 -75 60 -35 33 -68 60 -73 60 -10 0 -122 72 -126 82 -2 4
-60 35 -130 69 -70 34 -129 66 -132 70 -8 12 -323 139 -345 139 -8 0 -15 4
-17 9 -4 11 -213 81 -243 81 -19 0 -25 -14 -55 -122z"/>
<path d="M9154 7062 c-6 -4 -39 -65 -74 -137 -35 -71 -69 -136 -76 -143 -7 -7
-37 -58 -66 -113 -29 -56 -58 -104 -65 -106 -7 -3 -13 -10 -13 -15 0 -6 -17
-38 -37 -72 -21 -33 -46 -77 -56 -97 -9 -20 -27 -45 -38 -57 -18 -20 -18 -22
-2 -22 66 1 586 99 591 112 2 4 11 8 20 8 44 1 45 13 12 126 -18 60 -35 118
-38 129 -3 11 -8 22 -12 25 -3 3 -32 82 -64 175 -66 193 -67 197 -82 187z"/>
<path d="M5816 7018 c-8 -24 -34 -99 -57 -168 -23 -69 -45 -127 -48 -130 -4
-3 -19 -48 -35 -100 -16 -52 -35 -115 -42 -139 -16 -50 -12 -61 21 -61 13 0
25 -4 27 -9 3 -8 241 -57 398 -81 41 -7 99 -16 129 -21 76 -12 75 -13 53 24
-11 17 -30 50 -42 72 -38 69 -75 125 -82 125 -5 0 -8 4 -8 10 0 5 -17 38 -38
72 -21 35 -44 77 -51 94 -7 18 -21 41 -31 52 -10 11 -46 75 -80 142 -34 67
-69 131 -80 142 -18 19 -18 19 -34 -24z"/>
<path d="M5506 5972 c-28 -155 -55 -340 -62 -427 -4 -44 -11 -83 -17 -86 -13
-9 -13 -509 0 -518 6 -3 13 -35 17 -71 19 -169 77 -343 139 -416 80 -94 99
-108 176 -128 58 -15 92 -18 164 -13 123 9 337 65 337 88 0 5 6 9 14 9 21 0
266 119 266 130 0 5 10 12 23 16 12 4 47 23 77 44 30 20 74 47 98 60 23 13 42
27 42 32 0 4 31 28 69 52 37 24 83 60 102 79 19 19 40 36 46 38 12 4 70 54
195 168 l47 43 -37 46 c-20 25 -59 70 -87 98 -92 97 -155 169 -185 211 -16 24
-48 60 -70 80 -22 21 -40 42 -40 46 0 8 -56 82 -92 122 -30 32 -118 153 -118
162 -1 4 -10 19 -20 32 -18 20 -35 25 -143 37 -180 20 -491 67 -497 74 -3 4
-61 17 -130 29 -69 13 -150 29 -180 36 -30 7 -69 15 -86 18 l-31 6 -17 -97z"/>
<path d="M9350 6044 c-58 -12 -150 -31 -205 -40 -55 -10 -102 -21 -105 -25 -6
-8 -306 -52 -470 -69 -58 -6 -115 -15 -126 -20 -12 -4 -42 -39 -67 -77 -25
-37 -58 -82 -74 -100 -15 -18 -55 -68 -87 -113 -32 -44 -62 -80 -65 -81 -3 0
-28 -30 -56 -65 -27 -36 -68 -85 -90 -107 -22 -23 -62 -70 -89 -104 -26 -34
-54 -64 -61 -66 -7 -3 -29 -26 -50 -52 l-38 -46 43 -44 c25 -25 47 -45 51 -45
4 0 35 -27 70 -60 34 -33 68 -60 75 -60 7 0 21 -10 31 -23 20 -25 97 -87 108
-87 8 0 75 -52 114 -87 13 -13 28 -23 32 -23 5 0 39 -20 76 -44 37 -24 78 -47
91 -50 12 -4 22 -11 22 -16 0 -11 224 -120 245 -120 7 0 20 -6 27 -13 16 -16
82 -40 173 -63 49 -13 108 -18 200 -19 122 0 133 2 186 28 38 18 65 40 83 68
15 22 36 48 47 57 44 38 114 277 126 434 3 43 10 78 14 78 5 0 9 97 9 215 0
118 -4 215 -9 215 -4 0 -11 42 -15 93 -10 132 -60 460 -82 540 -6 21 -3 21
-134 -9z"/>
<path d="M7060 5849 c0 -13 78 -111 100 -126 12 -8 25 -23 28 -34 8 -20 106
-132 200 -227 34 -35 62 -66 62 -71 0 -4 10 -17 23 -29 24 -22 47 -29 47 -14
0 5 30 40 68 78 86 89 188 205 227 258 17 22 45 56 62 74 17 17 40 47 50 65
l19 32 -443 0 c-244 0 -443 -3 -443 -6z"/>
</g>
</svg>
