<svg fill="none" height="15" viewBox="0 0 15 15" width="15" xmlns="http://www.w3.org/2000/svg"><path clip-rule="evenodd" d="m7.5.421143 6.5 3.791667v6.57439l-6.5 3.7916-6.5-3.7916v-6.57439zm0 3.578857c-1.933 0-3.5 1.567-3.5 3.5s1.567 3.5 3.5 3.5h.18198c.97652 0 1.91305-.3879 2.60352-1.07843l.0681-.06802-.70715-.7071-.06802.06802c-.50297.50297-1.18514.78553-1.89645.78553h-.18198c-1.38071 0-2.5-1.11929-2.5-2.5s1.11929-2.5 2.5-2.5h.18198c.71131 0 1.39348.28257 1.89645.78553l.06802.06802.70715-.7071-.0681-.06802c-.69047-.69051-1.627-1.07843-2.60352-1.07843z" fill="#000" fill-rule="evenodd"/></svg>