<svg height="512" width="512" xmlns="http://www.w3.org/2000/svg"><path clip-rule="evenodd" d="m512 512h-512v-512h512zm-105.5898132-294.986496v-39.7091064c-6.5395508-2.9124451-43.9914856-13.6256561-73.5786438-2.3358154-42.6195068 16.2626953-41.0883484 65.252121-24.9155273 84.4791718 20.9548035 24.9121094 73.0820007 34.2002258 64.5520935 58.6526489-4.4167175 12.6612549-25.0381165 14.8652649-43.2182007 10.6149902-16.9307251-3.9581909-31.6504822-13.9863281-31.6504822-13.9863281v42.0449524s14.551239 8.1123352 32.4086914 10.041626c22.8928223 2.4732971 51.5887756-2.196167 65.9646301-14.9747314 25.5897217-22.7464294 29.5203552-73.1366882-18.9750671-96.5355377-40.3551636-19.4712067-39.690979-25.0277252-39.4074097-35.0145874.3797607-13.37558 28.463623-21.6091005 68.8199158-3.2772829zm-217.6215058-111.4385376c33.5775604 1.1679153 82.9219818 16.6427917 82.9219818 82.6299896s-60.3740845 87.6393738-115.4625854 82.9219666v93.433197h-41.0380325v-258.1092148s40.001091-2.0438537 73.5786361-.8759384zm10.6572266 124.6749268c17.696579-6.4568634 29.197876-20.338089 29.197876-41.8989563 0-22.8623505-11.705246-38.342453-29.6063385-42.7161255-19.3864594-4.7365875-42.7893677-1.9443665-42.7893677-1.9443665v90.0438843s32.3946228.4572754 43.1978302-3.484436z" fill-rule="evenodd"/></svg>