<svg version="1.2" xmlns="http://www.w3.org/2000/svg" viewBox="0 0 30 20" width="30" height="20">
	<title>alison-svg</title>
	<style>
		.s0 { fill: #465159 } 
		.s1 { fill: #f58220 } 
		.s2 { fill: #ea1c2d } 
		.s3 { fill: #ffd200 } 
		.s4 { fill: #c1d52f } 
		.s5 { fill: #ac1e2d } 
		.s6 { fill: #00a94f } 
		.s7 { fill: #c9187e } 
		.s8 { fill: #008445 } 
		.s9 { fill: #873795 } 
		.s10 { fill: #f99d25 } 
		.s11 { fill: #e32726 } 
	</style>
	<g id="Group_117387">
		<g id="Group_3">
			<path id="Path_12" fill-rule="evenodd" class="s0" d="m42.6 0.7h3.7l8 18.7h-4.2l-1.8-4.1h-7.8l-1.7 4.1h-4.2zm4.3 11l-2.5-6-2.4 6z"/>
			<path id="Path_13" class="s0" d="m57 0h4v19.4h-4z"/>
			<path id="Path_14" class="s0" d="m64.9 0h4.3v3.6h-4.3zm0.1 5.2h4v14.2h-4z"/>
			<path id="Path_15" class="s0" d="m77.8 19.7q-0.4 0-0.7 0-0.4-0.1-0.8-0.1-0.4-0.1-0.8-0.2-0.4-0.1-0.7-0.2-0.5-0.2-0.9-0.3-0.3-0.2-0.7-0.4-0.4-0.2-0.8-0.5-0.3-0.2-0.7-0.5l1.8-2.6q0.2 0.2 0.5 0.4 0.3 0.1 0.6 0.3 0.3 0.2 0.6 0.3 0.3 0.1 0.6 0.3 0.3 0.1 0.5 0.1 0.3 0.1 0.6 0.2 0.2 0 0.5 0 0.3 0.1 0.6 0.1 0.1 0 0.3 0 0.2 0 0.3-0.1 0.2 0 0.4-0.1 0.1 0 0.3-0.1 0.1-0.1 0.1-0.2 0.1-0.1 0.2-0.2 0-0.1 0-0.2 0.1-0.1 0.1-0.2v-0.1q0 0 0-0.1-0.1-0.1-0.1-0.2 0 0-0.1-0.1 0-0.1-0.1-0.1 0-0.1-0.1-0.1-0.1-0.1-0.2-0.1-0.1-0.1-0.1-0.1-0.1-0.1-0.2-0.1-0.4-0.2-1-0.4-0.5-0.1-1.1-0.3-0.2-0.1-0.4-0.1-0.1-0.1-0.3-0.1-0.2-0.1-0.4-0.2-0.2 0-0.4-0.1-0.2-0.1-0.3-0.2-0.2-0.1-0.4-0.2-0.2-0.1-0.3-0.2-0.2-0.1-0.4-0.2-0.1-0.1-0.2-0.3-0.2-0.1-0.3-0.3-0.1-0.1-0.2-0.3-0.2-0.1-0.3-0.3-0.1-0.2-0.1-0.4-0.1-0.3-0.2-0.5 0-0.2 0-0.4 0-0.3 0-0.5 0-0.3 0-0.5 0-0.3 0.1-0.5 0-0.3 0.1-0.5 0.1-0.2 0.2-0.5 0.2-0.4 0.5-0.8 0.2-0.3 0.6-0.6 0.4-0.3 0.8-0.5 0.4-0.2 0.8-0.4 0.3 0 0.5-0.1 0.3-0.1 0.5-0.1 0.3 0 0.6-0.1 0.2 0 0.5 0 0.3 0 0.7 0.1 0.3 0 0.7 0 0.3 0.1 0.7 0.2 0.3 0.1 0.6 0.2 0.4 0.1 0.7 0.2 0.3 0.1 0.7 0.3 0.3 0.1 0.6 0.3 0.3 0.2 0.6 0.4l-1.5 2.8q-0.3-0.2-0.5-0.3-0.3-0.1-0.6-0.2-0.2-0.2-0.5-0.3-0.2-0.1-0.5-0.2-0.2-0.1-0.4-0.1-0.3-0.1-0.5-0.1-0.2-0.1-0.4-0.1-0.3 0-0.5 0-0.1 0-0.3 0-0.1 0-0.3 0-0.1 0-0.2 0.1-0.2 0.1-0.3 0.1-0.1 0.1-0.2 0.2 0 0.1-0.1 0.1 0 0.1 0 0.2-0.1 0.1-0.1 0.2v0.1q0 0.1 0 0.1 0.1 0.1 0.1 0.2 0 0.1 0.1 0.1 0 0.1 0.1 0.1 0 0.1 0.1 0.1 0.1 0.1 0.2 0.2 0 0 0.1 0.1 0.1 0 0.2 0 0.1 0.1 0.2 0.1 0.1 0.1 0.3 0.1 0.1 0.1 0.2 0.1 0.1 0.1 0.2 0.1 0.6 0.2 1.1 0.4 0.8 0.2 1.6 0.6 0.1 0.1 0.3 0.1 0.2 0.1 0.4 0.2 0.1 0.1 0.3 0.3 0.2 0.1 0.3 0.2 0.2 0.1 0.3 0.2 0.2 0.2 0.3 0.3 0.1 0.2 0.2 0.3 0.2 0.2 0.3 0.4 0.1 0.2 0.1 0.4 0.1 0.2 0.2 0.4 0 0.2 0 0.4 0.1 0.2 0.1 0.4v0.1q0 0.2 0 0.5-0.1 0.3-0.1 0.5-0.1 0.3-0.2 0.5 0 0.3-0.1 0.5-0.1 0.3-0.3 0.4-0.1 0.2-0.2 0.4-0.2 0.2-0.3 0.4-0.2 0.1-0.4 0.3-0.2 0.1-0.4 0.2-0.2 0.2-0.4 0.3-0.2 0.1-0.5 0.2-0.2 0-0.4 0.1-0.3 0.1-0.6 0.1-0.2 0.1-0.5 0.1-0.3 0-0.6 0.1-0.3 0-0.6 0z"/>
			<path id="Path_16" fill-rule="evenodd" class="s0" d="m93.2 19.8q-0.4 0-0.8-0.1-0.4 0-0.7-0.1-0.4-0.1-0.8-0.2-0.4-0.1-0.7-0.2-0.7-0.3-1.3-0.7-0.6-0.4-1.2-0.9-0.5-0.5-0.9-1.1-0.4-0.6-0.7-1.2-0.1-0.4-0.2-0.7-0.2-0.4-0.2-0.7-0.1-0.4-0.1-0.8-0.1-0.3-0.1-0.7v-0.1q0-0.7 0.2-1.4 0.1-0.8 0.4-1.4 0.3-0.7 0.7-1.3 0.4-0.6 0.9-1.1 0.3-0.3 0.6-0.5 0.3-0.2 0.6-0.4 0.3-0.2 0.6-0.4 0.4-0.2 0.7-0.3 0.7-0.3 1.5-0.5 0.8-0.1 1.6-0.1 0.8 0 1.5 0.1 0.8 0.2 1.5 0.5 0.7 0.2 1.3 0.6 0.6 0.4 1.2 0.9 0.5 0.5 0.9 1.1 0.4 0.6 0.7 1.3 0.1 0.3 0.2 0.7 0.2 0.3 0.2 0.7 0.1 0.4 0.1 0.7 0.1 0.4 0.1 0.8 0 0.8-0.2 1.5-0.1 0.7-0.4 1.4-0.3 0.6-0.7 1.3-0.4 0.6-0.9 1.1-0.3 0.2-0.6 0.5-0.3 0.2-0.6 0.4-0.3 0.2-0.6 0.4-0.4 0.1-0.7 0.3-0.4 0.1-0.7 0.2-0.4 0.1-0.8 0.2-0.4 0.1-0.8 0.1-0.4 0.1-0.8 0.1zm0.1-3.5q0.3 0 0.7-0.1 0.4-0.1 0.7-0.2 0.4-0.2 0.7-0.4 0.3-0.2 0.6-0.5 0.1-0.1 0.2-0.3 0.1-0.1 0.2-0.3 0.1-0.1 0.2-0.3 0-0.2 0.1-0.3 0.1-0.2 0.1-0.4 0.1-0.2 0.1-0.4 0-0.2 0-0.4 0.1-0.1 0.1-0.3v-0.1q0-0.2-0.1-0.4 0-0.1 0-0.3 0-0.2-0.1-0.4 0-0.2-0.1-0.4-0.1-0.1-0.1-0.3-0.1-0.2-0.2-0.3-0.1-0.2-0.2-0.3-0.2-0.2-0.3-0.3-0.4-0.4-0.9-0.7-0.5-0.3-1.1-0.4-0.6-0.1-1.1-0.1-0.6 0.1-1.2 0.3-0.1 0.1-0.3 0.2-0.1 0.1-0.3 0.2-0.1 0.1-0.3 0.2-0.1 0.1-0.2 0.2-0.1 0.2-0.2 0.3-0.1 0.2-0.2 0.3-0.1 0.2-0.2 0.4-0.1 0.1-0.1 0.3-0.1 0.2-0.1 0.4-0.1 0.1-0.1 0.3-0.1 0.2-0.1 0.4 0 0.2 0 0.4 0 0.2 0 0.4 0 0.2 0.1 0.4 0 0.2 0.1 0.4 0 0.1 0.1 0.3 0 0.2 0.1 0.4 0.1 0.1 0.2 0.3 0.1 0.1 0.2 0.3 0.1 0.1 0.2 0.3 0.2 0.1 0.3 0.2 0.2 0.2 0.3 0.3 0.2 0.1 0.3 0.2 0.2 0.1 0.3 0.1 0.2 0.1 0.4 0.2 0.2 0 0.4 0.1 0.2 0 0.4 0 0.2 0.1 0.4 0.1z"/>
			<path id="Path_17" class="s0" d="m103.9 5.2h4v2q0.1-0.1 0.2-0.2 0.1-0.1 0.2-0.3 0.1-0.1 0.2-0.2 0.1-0.1 0.2-0.2 0.1-0.1 0.2-0.2 0.1-0.1 0.2-0.2 0.1-0.1 0.3-0.1 0.1-0.1 0.2-0.2 0.1-0.1 0.3-0.2 0.1 0 0.2-0.1 0.2-0.1 0.3-0.1 0.2-0.1 0.3-0.1 0.2-0.1 0.4-0.1 0.1 0 0.3-0.1 0.2 0 0.4 0 0.1 0 0.3 0 0.5 0 1 0.1 0.5 0 1 0.2 0.4 0.2 0.8 0.5 0.4 0.3 0.8 0.6 0.3 0.4 0.6 0.9 0.2 0.4 0.4 0.9 0.1 0.5 0.2 1.1 0.1 0.5 0 1v9.2h-4v-7.9q0-0.3 0-0.6 0-0.3-0.1-0.6-0.1-0.2-0.2-0.5-0.1-0.3-0.3-0.5-0.2-0.2-0.4-0.3-0.2-0.2-0.5-0.3-0.2-0.1-0.4-0.1-0.3 0-0.5 0-0.3 0-0.6 0-0.2 0.1-0.4 0.1-0.3 0.1-0.5 0.3-0.2 0.1-0.4 0.3-0.2 0.2-0.3 0.5-0.2 0.2-0.2 0.5-0.1 0.3-0.2 0.6 0 0.3 0 0.6v7.9h-4z"/>
		</g>
		<g id="Group_2">
			<g id="Group_1">
				<path id="Path_1" class="s1" d="m11.5 6.6l-3.8-6.6h7.7z"/>
				<path id="Path_2" class="s2" d="m15.4 0l-3.9 6.6h7.7z"/>
				<path id="Path_3" class="s3" d="m7.7 0l-3.9 6.6h7.7z"/>
				<path id="Path_4" class="s4" d="m7.7 13.2l-3.9-6.6h7.7z"/>
				<path id="Path_5" class="s5" d="m15.4 13.2l-3.9-6.6h7.7z"/>
				<path id="Path_6" class="s6" d="m3.8 6.6l-3.8 6.6h7.7z"/>
				<path id="Path_7" class="s7" d="m19.2 6.6l-3.8 6.6h7.6z"/>
				<path id="Path_8" class="s8" d="m3.8 19.8l-3.8-6.6h7.7z"/>
				<path id="Path_9" class="s9" d="m19.2 19.8l-3.8-6.6h7.6z"/>
				<path id="Path_10" class="s0" d="m11.5 13.2l-3.8 6.6h7.7z"/>
				<path id="Path_11" class="s10" d="m23 13.2l-3.8 6.6h7.7z"/>
				<path id="Path_18" class="s11" d="m23 13.2l3.9 6.6 2.8-6.6z"/>
			</g>
		</g>
	</g>
</svg>