<svg version="1.2" xmlns="http://www.w3.org/2000/svg" viewBox="0 0 259 337" width="259" height="337">
	<title>programingHero-svg</title>
	<defs>
		<linearGradient id="g1" x2="1" gradientUnits="userSpaceOnUse" gradientTransform="matrix(186.006,-353.9,223.179,117.301,18.931,269.128)">
			<stop offset="0" stop-color="#324beb"/>
			<stop offset=".11" stop-color="#3d4aec"/>
			<stop offset=".3" stop-color="#5a47ef"/>
			<stop offset=".55" stop-color="#8a41f4"/>
			<stop offset=".84" stop-color="#cc3afb"/>
			<stop offset="1" stop-color="#f236ff"/>
		</linearGradient>
		<linearGradient id="g2" x2="1" gradientUnits="userSpaceOnUse" gradientTransform="matrix(186.007,-353.901,167.916,88.255,94.984,309.107)">
			<stop offset="0" stop-color="#324beb"/>
			<stop offset=".11" stop-color="#3d4aec"/>
			<stop offset=".3" stop-color="#5a47ef"/>
			<stop offset=".55" stop-color="#8a41f4"/>
			<stop offset=".84" stop-color="#cc3afb"/>
			<stop offset="1" stop-color="#f236ff"/>
		</linearGradient>
		<linearGradient id="g3" x2="1" gradientUnits="userSpaceOnUse" gradientTransform="matrix(186.006,-353.9,495.076,260.207,65.435,293.567)">
			<stop offset="0" stop-color="#324beb"/>
			<stop offset=".11" stop-color="#3d4aec"/>
			<stop offset=".3" stop-color="#5a47ef"/>
			<stop offset=".55" stop-color="#8a41f4"/>
			<stop offset=".84" stop-color="#cc3afb"/>
			<stop offset="1" stop-color="#f236ff"/>
		</linearGradient>
		<linearGradient id="g4" x2="1" gradientUnits="userSpaceOnUse" gradientTransform="matrix(89.285,-245.058,299.98,109.295,104.416,276.223)">
			<stop offset="0" stop-color="#324beb"/>
			<stop offset=".11" stop-color="#3d4aec"/>
			<stop offset=".3" stop-color="#5a47ef"/>
			<stop offset=".55" stop-color="#8a41f4"/>
			<stop offset=".84" stop-color="#cc3afb"/>
			<stop offset="1" stop-color="#f236ff"/>
		</linearGradient>
		<linearGradient id="g5" x2="1" gradientUnits="userSpaceOnUse" gradientTransform="matrix(186.007,-353.9,503.65,264.714,62.233,291.886)">
			<stop offset="0" stop-color="#324beb"/>
			<stop offset=".11" stop-color="#3d4aec"/>
			<stop offset=".3" stop-color="#5a47ef"/>
			<stop offset=".55" stop-color="#8a41f4"/>
			<stop offset=".84" stop-color="#cc3afb"/>
			<stop offset="1" stop-color="#f236ff"/>
		</linearGradient>
		<linearGradient id="g6" x2="1" gradientUnits="userSpaceOnUse" gradientTransform="matrix(186.017,-353.91,489.552,257.311,64.238,292.95)">
			<stop offset="0" stop-color="#5c52fd"/>
			<stop offset="1" stop-color="#dc02ce"/>
		</linearGradient>
		<radialGradient id="g7" cx="0" cy="0" r="1" gradientUnits="userSpaceOnUse" gradientTransform="matrix(-1.099,165.384,-165.384,-1.099,65.129,100.376)">
			<stop offset="0" stop-color="#ffffff" stop-opacity="1"/>
			<stop offset=".01" stop-color="#fff8ff" stop-opacity=".97"/>
			<stop offset=".09" stop-color="#fcd0ff" stop-opacity=".77"/>
			<stop offset=".17" stop-color="#faabff" stop-opacity=".58"/>
			<stop offset=".26" stop-color="#f88cff" stop-opacity=".43"/>
			<stop offset=".35" stop-color="#f671ff" stop-opacity=".29"/>
			<stop offset=".44" stop-color="#f45cff" stop-opacity=".19"/>
			<stop offset=".54" stop-color="#f34bff" stop-opacity=".1"/>
			<stop offset=".66" stop-color="#f33fff" stop-opacity=".05"/>
			<stop offset=".79" stop-color="#f238ff" stop-opacity=".01"/>
			<stop offset="1" stop-color="#f236ff" stop-opacity="0"/>
		</radialGradient>
		<radialGradient id="g8" cx="0" cy="0" r="1" gradientUnits="userSpaceOnUse" gradientTransform="matrix(0,90.17,-90.17,0,61.77,98.317)">
			<stop offset="0" stop-color="#ffffff" stop-opacity="1"/>
			<stop offset=".01" stop-color="#fff8ff" stop-opacity=".97"/>
			<stop offset=".09" stop-color="#fcd0ff" stop-opacity=".77"/>
			<stop offset=".17" stop-color="#faabff" stop-opacity=".58"/>
			<stop offset=".26" stop-color="#f88cff" stop-opacity=".43"/>
			<stop offset=".35" stop-color="#f671ff" stop-opacity=".29"/>
			<stop offset=".44" stop-color="#f45cff" stop-opacity=".19"/>
			<stop offset=".54" stop-color="#f34bff" stop-opacity=".1"/>
			<stop offset=".66" stop-color="#f33fff" stop-opacity=".05"/>
			<stop offset=".79" stop-color="#f238ff" stop-opacity=".01"/>
			<stop offset="1" stop-color="#f236ff" stop-opacity="0"/>
		</radialGradient>
		<radialGradient id="g9" cx="0" cy="0" r="1" gradientUnits="userSpaceOnUse" gradientTransform="matrix(79.332,63.506,-63.506,79.332,179.453,67.734)">
			<stop offset="0" stop-color="#ffffff" stop-opacity="1"/>
			<stop offset=".708" stop-color="#f99eff" stop-opacity=".19"/>
			<stop offset="1" stop-color="#f236ff" stop-opacity="0"/>
		</radialGradient>
		<radialGradient id="g10" cx="0" cy="0" r="1" gradientUnits="userSpaceOnUse" gradientTransform="matrix(63.601,52.453,-52.453,63.601,167.893,87.627)">
			<stop offset="0" stop-color="#ffffff" stop-opacity="1"/>
			<stop offset=".594" stop-color="#f33aff" stop-opacity=".52"/>
			<stop offset="1" stop-color="#f236ff" stop-opacity="0"/>
		</radialGradient>
		<radialGradient id="g11" cx="0" cy="0" r="1" gradientUnits="userSpaceOnUse" gradientTransform="matrix(-0.123,82.44,-82.44,-0.123,43.674,174.703)">
			<stop offset="0" stop-color="#ffffff" stop-opacity="1"/>
			<stop offset=".578" stop-color="#f33aff" stop-opacity=".52"/>
			<stop offset="1" stop-color="#f236ff" stop-opacity="0"/>
		</radialGradient>
		<radialGradient id="g12" cx="0" cy="0" r="1" gradientUnits="userSpaceOnUse" gradientTransform="matrix(40.937,32.525,-32.525,40.937,158.279,112.013)">
			<stop offset="0" stop-color="#ffffff" stop-opacity="1"/>
			<stop offset=".708" stop-color="#f99eff" stop-opacity=".52"/>
			<stop offset="1" stop-color="#f236ff" stop-opacity="0"/>
		</radialGradient>
	</defs>
	<style>
		.s0 { fill: url(#g1) } 
		.s1 { fill: url(#g2) } 
		.s2 { fill: url(#g3) } 
		.s3 { fill: url(#g4) } 
		.s4 { fill: url(#g5) } 
		.s5 { fill: url(#g6) } 
		.s6 { opacity: .5;mix-blend-mode: lighten;fill: url(#g7) } 
		.s7 { mix-blend-mode: overlay;fill: url(#g8) } 
		.s8 { mix-blend-mode: overlay;fill: url(#g9) } 
		.s9 { mix-blend-mode: overlay;fill: url(#g10) } 
		.s10 { mix-blend-mode: overlay;fill: url(#g11) } 
		.s11 { opacity: .8;mix-blend-mode: overlay;fill: url(#g12) } 
	</style>
	<path id="Layer" class="s0" d="m77.3 85.1v195.2h-10c-14.7 0-26.6-12.2-26.6-27.1v-141c0-15 11.9-27.1 26.6-27.1z"/>
	<path id="Layer" class="s1" d="m117.9 257.1c-8.5-6.9-11.1-14-11.1-23.1 0-9.1 3.5-16.7 12.1-23.6l63.7-52c7.8 5.3-3 49.7-3 49.7z"/>
	<path id="Layer" class="s2" d="m77.3 303.5v31.7h-10c-14.7 0-26.6-12.2-26.6-27.2v-31.7c0 15 11.9 27.2 26.6 27.2z"/>
	<path id="Layer" class="s3" d="m201.9 171.6c-8.7 15.3-19.6 34-19.9 34.6 0.2-0.5 4.9-11.8 13.4-35.2 4.6-12.9 1.6-16.1-6.8-22.5-1.4-1-49.3-38.4-84.3-65.7v-17c37.2 30 89 71.7 90.9 73.2 11.8 8.9 17.3 13.8 6.7 32.6z"/>
	<path id="Layer" class="s4" d="m225.3 157.8c-10.3 12.7-42 46.9-43.3 48.3 0.1-0.1 20.6-29.4 34.7-48.9 8.7-12-2.5-18.2-10.9-24.5-1.8-1.3-68.9-53.1-101.5-78.1v-20.7c36.6 29.3 113.1 90.7 115.4 92.4 11.8 9 17.3 17.1 5.6 31.5z"/>
	<path id="Layer" class="s5" d="m241.9 158.3l-59.8 47.8c1.7-1.6 53.5-48.9 60-59.9 7.5-12.7-2.4-14.9-12.7-24.2-1.5-1.3-80.6-65.5-125.1-101.5v-17.9c49.8 40.7 140 114.4 145.1 118.2 13.4 10.1 10.5 23.1-7.5 37.5z"/>
	<path id="Layer" class="s6" d="m60.9 287.4c40.8 0.3 74.4-83.3 75.1-186.8 0.7-103.4-31.8-187.5-72.6-187.8-40.7-0.3-74.3 83.4-75 186.8-0.7 103.5 31.8 187.6 72.5 187.8z"/>
	<path id="Layer" class="s7" d="m63.1 200.3c42.1 0 76.2-45.8 76.2-102.2 0-56.4-34.1-102.1-76.2-102.1-42 0-76.1 45.7-76.1 102.1 0 56.4 34.1 102.2 76.1 102.2z"/>
	<g id="Layer">
		<path id="Layer" class="s8" d="m269.1 140.4c2.6-3.3-33.3-36.3-80.3-73.7-47-37.4-87.2-65-89.9-61.7-2.6 3.4 33.3 36.4 80.3 73.8 47 37.4 87.2 65 89.9 61.6z"/>
	</g>
	<g id="Layer">
		<path id="Layer" class="s9" d="m240.3 148.1c2.2-2.7-28.4-31.5-68.5-64.3-40.1-32.7-74.4-57.1-76.6-54.3-2.3 2.7 28.4 31.5 68.5 64.3 40 32.7 74.3 57.1 76.6 54.3z"/>
	</g>
	<g id="Layer">
		<path id="Layer" class="s10" d="m42.9 269c3.6 0 6.3-42 6.2-93.7-0.1-51.7-3.1-93.7-6.7-93.7-3.6 0-6.3 42-6.2 93.7 0.2 51.8 3.2 93.7 6.7 93.7z"/>
	</g>
	<g id="Layer">
		<path id="Layer" class="s11" d="m204.9 149.5c1.1-1.4-18.9-19-44.6-39.4-25.8-20.3-47.6-35.6-48.7-34.3-1.1 1.4 18.9 19 44.7 39.4 25.8 20.3 47.5 35.6 48.6 34.3z"/>
	</g>
</svg>