<svg xmlns="http://www.w3.org/2000/svg" width="287" height="463" viewBox="0 0 287 463" fill="none">
                    <path d="M90.3361 173.087V368.288H80.2963C65.6118 368.288 53.7009 356.15 53.7009 341.18V200.196C53.7009 185.226 65.5928 173.087 80.2963 173.087H90.3361Z" fill="url(#paint0_linear_2_1393)" />
                    <path d="M130.923 345.15C122.374 338.179 119.8 331.112 119.8 321.984C119.8 312.856 123.276 305.314 131.853 298.352L195.644 246.386C203.376 251.677 192.567 296.11 192.567 296.11L130.923 345.15Z" fill="url(#paint1_linear_2_1393)" />
                    <path d="M90.3361 391.512V423.217H80.2963C65.6118 423.217 53.7009 411.022 53.7009 395.986V364.29C53.7009 379.325 65.5928 391.512 80.2963 391.512H90.3361Z" fill="url(#paint2_linear_2_1393)" />
                    <path d="M214.908 259.579C206.207 274.929 195.322 293.593 194.961 294.173C195.17 293.698 199.938 282.404 208.363 259.029C213.036 246.063 210.016 242.881 201.619 236.546C200.185 235.463 152.313 198.125 117.283 170.808V153.844C154.46 183.754 206.293 225.547 208.154 227C219.999 235.938 225.527 240.83 214.908 259.579Z" fill="url(#paint3_linear_2_1393)" />
                    <path d="M238.302 245.797C228.015 258.478 196.338 292.719 195.046 294.125C195.103 293.992 215.619 264.68 229.743 245.151C238.368 233.221 227.169 226.991 218.773 220.655C217.044 219.354 149.891 167.626 117.349 142.559V121.872C153.87 151.184 230.446 212.648 232.659 214.32C244.456 223.267 249.994 231.379 238.302 245.797Z" fill="url(#paint4_linear_2_1393)" />
                    <path d="M254.924 246.272L195.084 294.135C196.765 292.529 248.579 245.208 255.142 234.152C262.646 221.519 252.654 219.316 242.367 210.045C240.876 208.706 161.773 144.507 117.349 108.527V90.5747C167.111 131.266 257.279 204.954 262.361 208.763C275.811 218.898 272.876 231.93 254.924 246.272Z" fill="url(#paint5_linear_2_1393)" />
                    <path style="mix-blend-mode:lighten" opacity="0.51" d="M73.9437 375.441C114.712 375.712 148.319 292.065 149.007 188.61C149.694 85.1544 117.203 1.06781 76.4342 0.796798C35.6657 0.525788 2.05889 84.173 1.37116 187.628C0.683442 291.083 33.1753 375.17 73.9437 375.441Z" fill="url(#paint6_radial_2_1393)" />
                    <path style="mix-blend-mode:overlay" d="M76.1277 288.272C118.172 288.272 152.255 242.544 152.255 186.136C152.255 129.728 118.172 84 76.1277 84C34.0836 84 0 129.728 0 186.136C0 242.544 34.0836 288.272 76.1277 288.272Z" fill="url(#paint7_radial_2_1393)" />
                    <g style="mix-blend-mode:color-dodge">
                        <path d="M282.068 228.439C284.734 225.089 248.807 192.063 201.823 154.672C154.839 117.282 114.591 89.6858 111.925 93.0352C109.26 96.3847 145.187 129.411 192.17 166.802C239.154 204.192 279.403 231.788 282.068 228.439Z" fill="url(#paint8_radial_2_1393)" style="mix-blend-mode:overlay" />
                    </g>
                    <g style="mix-blend-mode:color-dodge">
                        <path d="M253.266 236.103C255.515 233.352 224.862 204.571 184.801 171.819C144.739 139.067 110.44 114.746 108.191 117.497C105.942 120.248 136.595 149.029 176.656 181.781C216.718 214.533 251.017 238.854 253.266 236.103Z" fill="url(#paint9_radial_2_1393)" style="mix-blend-mode:overlay" />
                    </g>
                    <g style="mix-blend-mode:color-dodge">
                        <path d="M55.9251 357.015C59.4784 357.005 62.2417 315.049 62.0971 263.303C61.9526 211.558 58.9549 169.618 55.4016 169.627C51.8483 169.637 49.085 211.594 49.2295 263.339C49.3741 315.085 52.3718 357.025 55.9251 357.015Z" fill="url(#paint10_radial_2_1393)" style="mix-blend-mode:overlay" />
                    </g>
                    <g style="mix-blend-mode:color-dodge">
                        <path d="M217.922 237.46C219.019 236.07 199.023 218.463 173.259 198.134C147.495 177.805 125.721 162.452 124.624 163.842C123.527 165.232 143.524 182.839 169.287 203.168C195.051 223.497 216.826 238.85 217.922 237.46Z" fill="url(#paint11_radial_2_1393)" fill-opacity="0.8" style="mix-blend-mode:overlay" />
                    </g>
                    <defs>
                        <linearGradient id="paint0_linear_2_1393" x1="31.9306" y1="357.128" x2="217.937" y2="3.2277" gradientUnits="userSpaceOnUse">
                            <stop stop-color="#324BEB" />
                            <stop offset="0.11" stop-color="#3D4AEC" />
                            <stop offset="0.3" stop-color="#5A47EF" />
                            <stop offset="0.55" stop-color="#8A41F4" />
                            <stop offset="0.84" stop-color="#CC3AFB" />
                            <stop offset="1" stop-color="#F236FF" />
                        </linearGradient>
                        <linearGradient id="paint1_linear_2_1393" x1="107.984" y1="397.107" x2="293.991" y2="43.2064" gradientUnits="userSpaceOnUse">
                            <stop stop-color="#324BEB" />
                            <stop offset="0.11" stop-color="#3D4AEC" />
                            <stop offset="0.3" stop-color="#5A47EF" />
                            <stop offset="0.55" stop-color="#8A41F4" />
                            <stop offset="0.84" stop-color="#CC3AFB" />
                            <stop offset="1" stop-color="#F236FF" />
                        </linearGradient>
                        <linearGradient id="paint2_linear_2_1393" x1="78.4347" y1="381.567" x2="264.441" y2="27.667" gradientUnits="userSpaceOnUse">
                            <stop stop-color="#324BEB" />
                            <stop offset="0.11" stop-color="#3D4AEC" />
                            <stop offset="0.3" stop-color="#5A47EF" />
                            <stop offset="0.55" stop-color="#8A41F4" />
                            <stop offset="0.84" stop-color="#CC3AFB" />
                            <stop offset="1" stop-color="#F236FF" />
                        </linearGradient>
                        <linearGradient id="paint3_linear_2_1393" x1="117.416" y1="364.223" x2="206.701" y2="119.165" gradientUnits="userSpaceOnUse">
                            <stop stop-color="#324BEB" />
                            <stop offset="0.11" stop-color="#3D4AEC" />
                            <stop offset="0.3" stop-color="#5A47EF" />
                            <stop offset="0.55" stop-color="#8A41F4" />
                            <stop offset="0.84" stop-color="#CC3AFB" />
                            <stop offset="1" stop-color="#F236FF" />
                        </linearGradient>
                        <linearGradient id="paint4_linear_2_1393" x1="75.2333" y1="379.886" x2="261.24" y2="25.9858" gradientUnits="userSpaceOnUse">
                            <stop stop-color="#324BEB" />
                            <stop offset="0.11" stop-color="#3D4AEC" />
                            <stop offset="0.3" stop-color="#5A47EF" />
                            <stop offset="0.55" stop-color="#8A41F4" />
                            <stop offset="0.84" stop-color="#CC3AFB" />
                            <stop offset="1" stop-color="#F236FF" />
                        </linearGradient>
                        <linearGradient id="paint5_linear_2_1393" x1="77.2375" y1="380.95" x2="263.254" y2="27.0401" gradientUnits="userSpaceOnUse">
                            <stop stop-color="#5C52FD" />
                            <stop offset="1" stop-color="#DC02CE" />
                        </linearGradient>
                        <radialGradient id="paint6_radial_2_1393" cx="0" cy="0" r="1" gradientUnits="userSpaceOnUse" gradientTransform="translate(78.1293 188.376) rotate(90.3809) scale(165.388 87.115)">
                            <stop stop-color="white" />
                            <stop offset="0.01" stop-color="#FFF8FF" stop-opacity="0.97" />
                            <stop offset="0.09" stop-color="#FCD0FF" stop-opacity="0.77" />
                            <stop offset="0.17" stop-color="#FAABFF" stop-opacity="0.58" />
                            <stop offset="0.26" stop-color="#F88CFF" stop-opacity="0.43" />
                            <stop offset="0.35" stop-color="#F671FF" stop-opacity="0.29" />
                            <stop offset="0.44" stop-color="#F45CFF" stop-opacity="0.19" />
                            <stop offset="0.54" stop-color="#F34BFF" stop-opacity="0.1" />
                            <stop offset="0.66" stop-color="#F33FFF" stop-opacity="0.05" />
                            <stop offset="0.79" stop-color="#F238FF" stop-opacity="0.01" />
                            <stop offset="1" stop-color="#F236FF" stop-opacity="0" />
                        </radialGradient>
                        <radialGradient id="paint7_radial_2_1393" cx="0" cy="0" r="1" gradientUnits="userSpaceOnUse" gradientTransform="translate(74.7702 186.317) rotate(90) scale(90.1697 90.2944)">
                            <stop stop-color="white" />
                            <stop offset="0.01" stop-color="#FFF8FF" stop-opacity="0.97" />
                            <stop offset="0.09" stop-color="#FCD0FF" stop-opacity="0.77" />
                            <stop offset="0.17" stop-color="#FAABFF" stop-opacity="0.58" />
                            <stop offset="0.26" stop-color="#F88CFF" stop-opacity="0.43" />
                            <stop offset="0.35" stop-color="#F671FF" stop-opacity="0.29" />
                            <stop offset="0.44" stop-color="#F45CFF" stop-opacity="0.19" />
                            <stop offset="0.54" stop-color="#F34BFF" stop-opacity="0.1" />
                            <stop offset="0.66" stop-color="#F33FFF" stop-opacity="0.05" />
                            <stop offset="0.79" stop-color="#F238FF" stop-opacity="0.01" />
                            <stop offset="1" stop-color="#F236FF" stop-opacity="0" />
                        </radialGradient>
                        <radialGradient id="paint8_radial_2_1393" cx="0" cy="0" r="1" gradientUnits="userSpaceOnUse" gradientTransform="translate(192.453 155.734) rotate(38.6776) scale(101.62 5.38183)">
                            <stop stop-color="white" />
                            <stop offset="0.708333" stop-color="#F99EFF" stop-opacity="0.19" />
                            <stop offset="1" stop-color="#F236FF" stop-opacity="0" />
                        </radialGradient>
                        <radialGradient id="paint9_radial_2_1393" cx="0" cy="0" r="1" gradientUnits="userSpaceOnUse" gradientTransform="translate(180.893 175.627) rotate(39.5129) scale(82.4402 5.03672)">
                            <stop stop-color="white" />
                            <stop offset="0.59375" stop-color="#F33AFF" stop-opacity="0.52" />
                            <stop offset="1" stop-color="#F236FF" stop-opacity="0" />
                        </radialGradient>
                        <radialGradient id="paint10_radial_2_1393" cx="0" cy="0" r="1" gradientUnits="userSpaceOnUse" gradientTransform="translate(56.6741 262.703) rotate(90.0852) scale(82.4402 5.03672)">
                            <stop stop-color="white" />
                            <stop offset="0.578125" stop-color="#F33AFF" stop-opacity="0.52" />
                            <stop offset="1" stop-color="#F236FF" stop-opacity="0" />
                        </radialGradient>
                        <radialGradient id="paint11_radial_2_1393" cx="0" cy="0" r="1" gradientUnits="userSpaceOnUse" gradientTransform="translate(171.279 200.013) rotate(38.4681) scale(52.285 2.17209)">
                            <stop stop-color="white" />
                            <stop offset="0.708333" stop-color="#F99EFF" stop-opacity="0.52" />
                            <stop offset="1" stop-color="#F236FF" stop-opacity="0" />
                        </radialGradient>
                    </defs>
                </svg>